<svg width="624" height="429" viewBox="0 0 624 429" fill="none" xmlns="http://www.w3.org/2000/svg">
<g clip-path="url(#clip0_2_57)">
<path d="M259.82 429.001H53.2558C52.2417 428.999 51.2696 428.596 50.5525 427.879C49.8354 427.162 49.432 426.19 49.4307 425.176V248.534C49.432 247.52 49.8354 246.548 50.5525 245.831C51.2696 245.114 52.2417 244.711 53.2558 244.709H259.82C260.835 244.711 261.807 245.114 262.524 245.831C263.241 246.548 263.644 247.52 263.646 248.534V425.175C263.644 426.189 263.241 427.161 262.524 427.878C261.807 428.595 260.835 428.999 259.82 429V429.001ZM53.2558 246.236C52.648 246.238 52.0655 246.48 51.6358 246.909C51.2061 247.339 50.9641 247.922 50.9627 248.529V425.175C50.9641 425.783 51.2061 426.365 51.6358 426.795C52.0655 427.225 52.648 427.467 53.2558 427.468H259.82C260.428 427.467 261.011 427.225 261.441 426.795C261.87 426.365 262.112 425.783 262.113 425.175V248.534C262.112 247.927 261.87 247.344 261.44 246.914C261.011 246.485 260.428 246.243 259.82 246.241L53.2558 246.236Z" fill="#FAFAFA"/>
<path d="M85.3511 413.171C93.9568 413.171 100.933 406.195 100.933 397.589C100.933 388.983 93.9568 382.007 85.3511 382.007C76.7455 382.007 69.7692 388.983 69.7692 397.589C69.7692 406.195 76.7455 413.171 85.3511 413.171Z" fill="#FAFAFA"/>
<path d="M121.339 387.201C120.65 387.201 119.99 387.474 119.503 387.961C119.016 388.448 118.742 389.109 118.742 389.798C118.742 390.486 119.016 391.147 119.503 391.634C119.99 392.121 120.65 392.395 121.339 392.395H243.77C244.459 392.395 245.119 392.121 245.606 391.634C246.093 391.147 246.367 390.486 246.367 389.798C246.367 389.109 246.093 388.448 245.606 387.961C245.119 387.474 244.459 387.201 243.77 387.201H121.339Z" fill="#FAFAFA"/>
<path d="M121.339 402.783C120.65 402.783 119.99 403.057 119.503 403.544C119.016 404.031 118.742 404.691 118.742 405.38C118.742 406.069 119.016 406.729 119.503 407.216C119.99 407.703 120.65 407.977 121.339 407.977H174.021C174.71 407.977 175.371 407.703 175.858 407.216C176.345 406.729 176.618 406.069 176.618 405.38C176.618 404.691 176.345 404.031 175.858 403.544C175.371 403.057 174.71 402.783 174.021 402.783H121.339Z" fill="#FAFAFA"/>
<path d="M308.898 367.39H102.332C101.318 367.389 100.346 366.986 99.629 366.269C98.9119 365.552 98.5086 364.579 98.5074 363.565V272.914C98.5086 271.9 98.9119 270.927 99.629 270.21C100.346 269.493 101.318 269.09 102.332 269.089H308.898C309.912 269.09 310.884 269.493 311.601 270.21C312.318 270.927 312.722 271.9 312.723 272.914V363.565C312.722 364.579 312.318 365.552 311.601 366.269C310.884 366.986 309.912 367.389 308.898 367.39Z" fill="#4B0082"/>
<path d="M144.4 300.685C143.711 300.685 143.05 300.959 142.563 301.446C142.076 301.933 141.803 302.593 141.803 303.282C141.803 303.971 142.076 304.631 142.563 305.118C143.05 305.605 143.711 305.879 144.4 305.879H266.831C267.52 305.879 268.181 305.605 268.668 305.118C269.155 304.631 269.428 303.971 269.428 303.282C269.428 302.593 269.155 301.933 268.668 301.446C268.181 300.959 267.52 300.685 266.831 300.685H144.4Z" fill="white"/>
<path d="M144.4 315.733C143.711 315.733 143.05 316.007 142.563 316.494C142.076 316.981 141.803 317.641 141.803 318.33C141.803 319.019 142.076 319.679 142.563 320.166C143.05 320.653 143.711 320.927 144.4 320.927H266.831C267.52 320.927 268.181 320.653 268.668 320.166C269.155 319.679 269.428 319.019 269.428 318.33C269.428 317.641 269.155 316.981 268.668 316.494C268.181 316.007 267.52 315.733 266.831 315.733H144.4Z" fill="white"/>
<path d="M144.4 330.599C143.711 330.599 143.05 330.873 142.563 331.36C142.076 331.847 141.803 332.507 141.803 333.196C141.803 333.885 142.076 334.545 142.563 335.032C143.05 335.519 143.711 335.793 144.4 335.793H197.082C197.771 335.793 198.432 335.519 198.919 335.032C199.406 334.545 199.679 333.885 199.679 333.196C199.679 332.507 199.406 331.847 198.919 331.36C198.432 330.873 197.771 330.599 197.082 330.599H144.4Z" fill="white"/>
<path d="M623.706 427.264H0V428.697H623.706V427.264Z" fill="#3F3D56"/>
<path d="M541.433 427.264H334.869C333.855 427.263 332.882 426.86 332.165 426.143C331.448 425.426 331.045 424.453 331.044 423.439V372.199C331.045 371.185 331.448 370.212 332.165 369.495C332.882 368.778 333.855 368.375 334.869 368.374H541.433C542.447 368.375 543.42 368.778 544.137 369.495C544.854 370.212 545.257 371.185 545.258 372.199V423.439C545.257 424.453 544.854 425.425 544.137 426.142C543.42 426.86 542.448 427.263 541.433 427.264ZM334.869 369.901C334.261 369.902 333.678 370.144 333.249 370.574C332.819 371.003 332.577 371.586 332.576 372.194V423.434C332.577 424.041 332.819 424.624 333.249 425.054C333.678 425.483 334.261 425.725 334.869 425.727H541.433C542.041 425.726 542.624 425.484 543.054 425.054C543.483 424.624 543.725 424.041 543.726 423.434V372.199C543.725 371.591 543.483 371.008 543.054 370.578C542.624 370.149 542.041 369.907 541.433 369.906L334.869 369.901Z" fill="#FAFAFA"/>
<path d="M366.965 411.435C375.57 411.435 382.547 404.458 382.547 395.853C382.547 387.247 375.57 380.271 366.965 380.271C358.359 380.271 351.383 387.247 351.383 395.853C351.383 404.458 358.359 411.435 366.965 411.435Z" fill="#FAFAFA"/>
<path d="M402.952 385.464C402.263 385.464 401.603 385.738 401.116 386.225C400.629 386.712 400.355 387.373 400.355 388.061C400.355 388.75 400.629 389.411 401.116 389.898C401.603 390.385 402.263 390.658 402.952 390.658H525.383C526.072 390.658 526.732 390.385 527.219 389.898C527.706 389.411 527.98 388.75 527.98 388.061C527.98 387.373 527.706 386.712 527.219 386.225C526.732 385.738 526.072 385.464 525.383 385.464H402.952Z" fill="#FAFAFA"/>
<path d="M402.952 401.047C402.263 401.047 401.603 401.321 401.116 401.808C400.629 402.295 400.355 402.955 400.355 403.644C400.355 404.333 400.629 404.993 401.116 405.48C401.603 405.967 402.263 406.241 402.952 406.241H455.634C456.323 406.241 456.984 405.967 457.471 405.48C457.958 404.993 458.231 404.333 458.231 403.644C458.231 402.955 457.958 402.295 457.471 401.808C456.984 401.321 456.323 401.047 455.634 401.047H402.952Z" fill="#FAFAFA"/>
<path d="M505.121 367.17L316.321 283.098C315.395 282.684 314.671 281.92 314.307 280.972C313.943 280.025 313.97 278.972 314.382 278.045L335.237 231.211C335.651 230.285 336.415 229.56 337.362 229.197C338.31 228.833 339.362 228.86 340.29 229.272L529.09 313.344C530.016 313.757 530.741 314.522 531.104 315.469C531.468 316.416 531.441 317.469 531.029 318.396L510.174 365.23C509.761 366.156 508.996 366.881 508.049 367.244C507.102 367.608 506.049 367.581 505.121 367.17ZM339.668 230.667C339.112 230.421 338.481 230.405 337.914 230.623C337.346 230.841 336.888 231.275 336.639 231.83L315.784 278.663C315.538 279.219 315.522 279.85 315.74 280.418C315.958 280.986 316.392 281.444 316.947 281.692L505.747 365.764C506.303 366.011 506.934 366.027 507.502 365.809C508.07 365.591 508.528 365.157 508.776 364.602L529.629 317.773C529.875 317.217 529.891 316.586 529.673 316.018C529.455 315.451 529.021 314.992 528.466 314.744L339.668 230.667Z" fill="#FAFAFA"/>
<path d="M352.1 281.693C359.965 285.195 369.181 281.658 372.683 273.793C376.186 265.927 372.649 256.711 364.783 253.209C356.918 249.706 347.702 253.243 344.2 261.109C340.697 268.974 344.234 278.19 352.1 281.693Z" fill="#FAFAFA"/>
<path d="M395.562 272.603C394.932 272.322 394.217 272.304 393.574 272.551C392.93 272.797 392.412 273.29 392.131 273.919C391.851 274.549 391.832 275.264 392.079 275.907C392.326 276.551 392.818 277.069 393.448 277.35L505.35 327.179C505.979 327.459 506.694 327.478 507.338 327.231C507.981 326.984 508.5 326.492 508.78 325.863C509.061 325.233 509.079 324.518 508.832 323.875C508.586 323.231 508.093 322.712 507.464 322.432L395.562 272.603Z" fill="#FAFAFA"/>
<path d="M389.22 286.845C388.59 286.565 387.875 286.546 387.232 286.793C386.588 287.04 386.069 287.532 385.789 288.162C385.509 288.791 385.49 289.506 385.737 290.15C385.984 290.793 386.476 291.312 387.106 291.592L435.258 313.034C435.887 313.314 436.602 313.333 437.246 313.086C437.889 312.839 438.408 312.347 438.688 311.717C438.968 311.088 438.987 310.373 438.74 309.73C438.493 309.086 438.001 308.567 437.371 308.287L389.22 286.845Z" fill="#FAFAFA"/>
<path d="M349.946 224.788L144.208 242.759C143.198 242.846 142.194 242.529 141.418 241.877C140.641 241.225 140.155 240.292 140.065 239.282L135.607 188.246C135.52 187.236 135.838 186.233 136.489 185.456C137.141 184.68 138.074 184.193 139.084 184.104L344.823 166.133C345.833 166.046 346.836 166.363 347.613 167.015C348.389 167.667 348.876 168.6 348.965 169.61L353.423 220.645C353.51 221.655 353.193 222.659 352.541 223.435C351.889 224.212 350.956 224.699 349.946 224.788ZM139.217 185.625C138.612 185.679 138.053 185.971 137.662 186.436C137.272 186.902 137.081 187.503 137.133 188.108L141.591 239.143C141.645 239.748 141.937 240.308 142.402 240.698C142.867 241.089 143.469 241.279 144.074 241.228L349.812 223.256C350.418 223.202 350.977 222.911 351.368 222.445C351.758 221.98 351.949 221.379 351.897 220.773L347.439 169.743C347.385 169.138 347.094 168.579 346.628 168.188C346.163 167.797 345.561 167.607 344.956 167.659L139.217 185.625Z" fill="#FAFAFA"/>
<path d="M174.798 224.2C183.369 223.452 189.711 215.896 188.962 207.325C188.214 198.754 180.658 192.413 172.087 193.161C163.516 193.91 157.174 201.465 157.923 210.036C158.672 218.608 166.227 224.949 174.798 224.2Z" fill="#FAFAFA"/>
<path d="M208.382 195.203C207.696 195.263 207.062 195.593 206.619 196.121C206.177 196.648 205.962 197.33 206.021 198.016C206.081 198.702 206.411 199.336 206.939 199.778C207.466 200.221 208.148 200.436 208.834 200.376L330.775 189.725C331.461 189.665 332.095 189.335 332.538 188.807C332.981 188.28 333.196 187.598 333.136 186.912C333.076 186.226 332.746 185.592 332.218 185.15C331.691 184.707 331.009 184.492 330.323 184.552L208.382 195.203Z" fill="#FAFAFA"/>
<path d="M209.738 210.724C209.052 210.784 208.418 211.113 207.975 211.641C207.532 212.168 207.317 212.85 207.377 213.536C207.437 214.222 207.767 214.856 208.294 215.299C208.822 215.741 209.504 215.956 210.19 215.897L262.661 211.313C263.347 211.253 263.981 210.923 264.424 210.396C264.867 209.868 265.082 209.187 265.022 208.501C264.962 207.815 264.632 207.181 264.105 206.738C263.577 206.295 262.895 206.08 262.209 206.14L209.738 210.724Z" fill="#FAFAFA"/>
<path d="M310.973 59.6276C324.033 59.6276 334.62 49.0405 334.62 35.9806C334.62 22.9208 324.033 12.3337 310.973 12.3337C297.913 12.3337 287.326 22.9208 287.326 35.9806C287.326 49.0405 297.913 59.6276 310.973 59.6276Z" fill="#2F2E41"/>
<path d="M311.453 61.7164C321.173 61.7164 329.053 53.8367 329.053 44.1166C329.053 34.3965 321.173 26.5168 311.453 26.5168C301.733 26.5168 293.853 34.3965 293.853 44.1166C293.853 53.8367 301.733 61.7164 311.453 61.7164Z" fill="#FEB8B8"/>
<path d="M338.203 69.6596C338.203 69.6596 305.957 63.927 285.176 71.0927L291.267 119.461L289.834 127.344L332.829 125.911L329.962 118.028L338.203 69.6596Z" fill="#FEB8B8"/>
<path d="M315.795 121.856C308.371 121.768 300.957 121.298 293.581 120.449C292.066 120.282 290.669 119.553 289.666 118.406C288.663 117.259 288.127 115.778 288.163 114.254L288.686 91.6341L288.747 91.5459C294.977 82.5221 291.942 75.931 289.607 72.3826C289.114 71.6331 288.852 70.7557 288.853 69.8588C288.495 69.3572 288.415 70.149 288.638 69.5872C288.748 69.3084 288.926 69.0616 289.156 68.8692C289.386 68.6767 289.66 68.5447 289.954 68.4851L293.511 67.7743C293.938 67.6891 294.381 67.7621 294.758 67.9798C295.135 68.1975 295.419 68.545 295.559 68.9574C296.754 72.5238 301.413 83.999 312.087 83.9961C321.005 83.9961 324.333 71.3765 324.532 68.46C324.564 68.0082 324.767 67.5854 325.098 67.2767C325.429 66.968 325.866 66.7963 326.319 66.7962H330.761C331.042 66.7896 331.322 66.8463 331.578 66.9622C331.834 67.078 332.061 67.25 332.242 67.4654C332.463 67.7397 332.598 68.0735 332.629 68.4245C332.66 68.7755 332.586 69.1279 332.417 69.4368C327.346 78.7594 334.756 93.5136 334.831 93.657L334.879 93.7501L332.788 115.457C332.661 116.731 332.139 117.933 331.294 118.894C330.449 119.855 329.324 120.527 328.077 120.815C324.845 121.574 320.476 121.856 315.795 121.856Z" fill="#CCCCCC"/>
<path d="M274.873 172.223C270.058 172.223 265.65 171.693 262.147 170.439C257.984 168.95 255.37 166.54 254.377 163.274C253.907 161.885 253.767 160.407 253.967 158.956C254.167 157.504 254.701 156.119 255.527 154.909C261.686 145.687 283.059 143.085 285.927 142.778L287.446 130.118C287.626 128.657 288.327 127.31 289.421 126.325C290.514 125.339 291.927 124.782 293.398 124.754L329.393 124.192C330.839 124.157 332.25 124.643 333.368 125.561C334.485 126.478 335.237 127.767 335.484 129.192L337.529 140.442L313.927 151.889L317.495 161.882L317.262 162.037C310.355 166.642 290.489 172.222 274.873 172.223Z" fill="#2F2E41"/>
<path d="M334.262 138.809C334.262 138.809 367.224 134.51 365.074 151.707C362.925 168.905 337.845 181.087 299.866 151.707L304.166 143.108C304.166 143.108 325.663 148.841 334.262 144.542V138.809Z" fill="#2F2E41"/>
<path d="M304.882 145.258C304.882 145.258 304.882 136.659 297.717 137.376C290.551 138.092 277.652 138.809 277.652 138.809C277.652 138.809 273.353 141.675 279.086 143.108C284.818 144.542 302.016 151.707 302.016 151.707L304.882 145.258Z" fill="#FEB8B8"/>
<path d="M317.064 143.825C317.064 143.825 317.064 135.226 324.23 135.943C331.395 136.659 344.294 137.376 344.294 137.376C344.294 137.376 348.593 140.242 342.861 141.675C337.128 143.108 319.93 150.274 319.93 150.274L317.064 143.825Z" fill="#FEB8B8"/>
<path d="M360.003 142.196L349.311 105.13C349.311 105.13 347.161 92.2316 345.011 80.0499C342.861 67.8681 334.979 69.3013 334.979 69.3013L333.546 70.0178V89.3653L334.979 107.28L349.285 146.62C348.864 147.984 348.84 149.44 349.215 150.817C349.591 152.195 350.35 153.437 351.405 154.399C352.46 155.361 353.767 156.003 355.174 156.25C356.58 156.497 358.027 156.338 359.347 155.793C360.666 155.248 361.804 154.339 362.626 153.172C363.448 152.005 363.921 150.627 363.99 149.201C364.059 147.775 363.72 146.359 363.014 145.118C362.308 143.877 361.264 142.863 360.003 142.193V142.196Z" fill="#FEB8B8"/>
<path d="M287.684 70.7344C287.684 70.7344 279.802 69.3013 277.652 81.483C275.503 93.6648 273.353 106.563 273.353 106.563L262.661 143.629C261.4 144.299 260.355 145.313 259.649 146.554C258.943 147.795 258.605 149.211 258.674 150.637C258.742 152.063 259.215 153.441 260.038 154.608C260.86 155.775 261.997 156.684 263.317 157.229C264.636 157.774 266.084 157.933 267.49 157.686C268.896 157.439 270.203 156.797 271.258 155.835C272.313 154.873 273.073 153.631 273.448 152.253C273.824 150.876 273.799 149.42 273.378 148.056L287.684 108.716L289.118 90.8014V73.0533C289.118 72.5718 288.984 72.0998 288.73 71.6903C288.477 71.2807 288.115 70.9497 287.684 70.7344Z" fill="#FEB8B8"/>
<path d="M294.031 33.3049C300.905 37.5008 308.653 40.054 316.675 40.7659L314.288 37.9061C316.026 38.5482 317.854 38.911 319.706 38.9809C320.633 39.0079 321.553 38.8171 322.393 38.424C323.233 38.0308 323.97 37.4463 324.543 36.7173C325.011 35.9603 325.289 35.1013 325.354 34.2135C325.418 33.3257 325.267 32.4355 324.913 31.6189C324.185 29.9899 323.053 28.5742 321.624 27.5064C319.091 25.5026 316.101 24.1565 312.922 23.5882C309.742 23.02 306.471 23.2472 303.401 24.2496C301.294 24.8785 299.406 26.0884 297.955 27.7407C297.242 28.5728 296.747 29.569 296.514 30.6397C296.281 31.7104 296.317 32.8222 296.62 33.8754" fill="#2F2E41"/>
<path d="M313.199 14.9585C307.648 9.32944 300.93 4.9856 293.519 2.23281C288.762 0.470751 283.584 -0.61842 278.611 0.382634C273.638 1.38369 268.937 4.82539 267.547 9.70383C266.413 13.6937 267.584 17.9903 269.345 21.7465C271.106 25.5028 273.457 28.984 274.881 32.8821C276.334 36.8579 276.771 41.1337 276.153 45.3214C275.535 49.5091 273.88 53.476 271.339 56.862C268.799 60.2479 265.453 62.9457 261.605 64.7103C257.757 66.4749 253.53 67.2505 249.306 66.9667C254.192 67.6216 258.697 69.9183 263.473 71.1407C268.25 72.3632 273.887 72.2801 277.437 68.8585C281.192 65.2383 281.267 59.3517 281.085 54.1386L280.276 30.8893C280.138 26.9374 280.021 22.858 281.446 19.169C282.871 15.4801 286.258 12.2498 290.213 12.2835C293.211 12.3093 295.863 14.1244 298.267 15.9151C300.671 17.7058 303.211 19.6162 306.2 19.882C309.189 20.1479 312.594 17.9394 312.37 14.9499" fill="#2F2E41"/>
<path d="M597.112 395.185C596.826 405.84 595.041 416.403 591.809 426.56C591.738 426.796 591.658 427.028 591.581 427.264H571.794C571.815 427.052 571.836 426.817 571.857 426.56C573.176 411.393 565.639 320.183 556.544 304.396C557.341 305.677 598.646 346.992 597.112 395.185Z" fill="#FAFAFA"/>
<path d="M595.627 426.56C595.462 426.796 595.29 427.032 595.113 427.264H580.269C580.381 427.063 580.512 426.827 580.663 426.56C583.115 422.134 590.373 408.902 597.11 395.185C604.348 380.443 610.993 365.143 610.434 359.605C610.607 360.854 615.617 398.928 595.627 426.56Z" fill="#FAFAFA"/>
</g>
<defs>
<clipPath id="clip0_2_57">
<rect width="623.706" height="429" fill="white"/>
</clipPath>
</defs>
</svg>
